# xmcd CD database file
#
# Track frame offsets:
#	150
#	18185
#	37245
#	57957
#	77485
#	106485
#	125757
#	144965
#	166060
#	183042
#	203097
#	221587
#	239477
#	261480
#	278590
#	306067
#
# Disc length: 4354 seconds
#
# Revision: 0
# Processed by: cddbd v1.5.1PL0 Copyright (c) Steve Scherf et al.
# Submitted via: CDex 1.51
#
DISCID=dd110010
DTITLE=CHRISTIANIA 12 and CHRISTIANIA JAZZ BAND [Herman Records HJCD 1015]  - Classic Jazz
DYEAR=1995
DGENRE=Jazz
TTITLE0=Christiania 12, Going To Town
TTITLE1=Christiania 12, Dancing Dave
TTITLE2=Christiania 12, I Ain't Got Nobody
TTITLE3=Christiania 12, The Stampede
TTITLE4=Christiania 12, I Surrender Dear
TTITLE5=Christiania 12, Everybody Shout
TTITLE6=Christiania 12, Saratoga Drag
TTITLE7=Christiania 12, When It's Sleepy Time Down South
TTITLE8=Christiania 12, Sugarfoot Stomp
TTITLE9=Christiania 12, Dallas Blues
TTITLE10=Christiania 12, After You've Gone
TTITLE11=Christiania 12, Singin' Pretty Songs
TTITLE12=Christiania Jazzband, We Three
TTITLE13=Christiania Jazzband, Always
TTITLE14=Christiania Jazzband, Sentimental Journey
TTITLE15=Christiania Jazzband, Hesitationg Blues
EXTD=YEAR: 1995
EXTT0=
EXTT1=
EXTT2=
EXTT3=
EXTT4=
EXTT5=
EXTT6=
EXTT7=
EXTT8=
EXTT9=
EXTT10=
EXTT11=
EXTT12=
EXTT13=
EXTT14=
EXTT15=
PLAYORDER=
